HIERARCHY
ROOT Root
{
OFFSET 0.000000 0.000000 0.000000
  CHANNELS 6 Xposition Yposition Zposition Zrotation Yrotation Xrotation
 JOINT Hips
 {
   OFFSET -0.00455359416082507 101.28157745081357 1.7763568394002505e-15
   CHANNELS 6 Xposition Yposition Zposition Zrotation Yrotation Xrotation
  JOINT Spine1
  {
    OFFSET 5.003913 -0.037094 -0.013727
    CHANNELS 3 Zrotation Yrotation Xrotation
   JOINT Spine2
   {
     OFFSET 7.125363 -0.000001 -0.000000
     CHANNELS 3 Zrotation Yrotation Xrotation
    JOINT Chest
    {
      OFFSET 7.594027 0.000001 -0.000000
      CHANNELS 3 Zrotation Yrotation Xrotation
     JOINT Neck1
     {
       OFFSET 26.313085 -0.460272 -0.181672
       CHANNELS 3 Zrotation Yrotation Xrotation
      JOINT Neck2
      {
        OFFSET 8.045911 -0.000000 0.000000
        CHANNELS 3 Zrotation Yrotation Xrotation
       JOINT Head
       {
         OFFSET 6.432774 0.000000 0.000000
         CHANNELS 3 Zrotation Yrotation Xrotation
        JOINT HeadEnd
        {
          OFFSET 16.169773 0.064510 0.003620
          CHANNELS 3 Zrotation Yrotation Xrotation
        }
        JOINT Jaw
        {
          OFFSET 0.108741 3.129380 0.002639
          CHANNELS 3 Zrotation Yrotation Xrotation
        }
        JOINT LeftEye
        {
          OFFSET 4.451730 8.166359 3.206392
          CHANNELS 3 Zrotation Yrotation Xrotation
        }
        JOINT RightEye
        {
          OFFSET 4.436895 8.135758 -3.222429
          CHANNELS 3 Zrotation Yrotation Xrotation
        }
       }
      }
     }
     JOINT LeftShoulder
     {
       OFFSET 23.218928 5.195579 1.621656
       CHANNELS 3 Zrotation Yrotation Xrotation
      JOINT LeftArm
      {
        OFFSET 15.902118 0.000002 -0.000002
        CHANNELS 3 Zrotation Yrotation Xrotation
       JOINT LeftForeArm
       {
         OFFSET 28.739307 0.000000 -0.000001
         CHANNELS 3 Zrotation Yrotation Xrotation
        JOINT LeftHand
        {
          OFFSET 27.093980 -0.000004 -0.000000
          CHANNELS 3 Zrotation Yrotation Xrotation
         JOINT LeftHandThumb1
         {
           OFFSET 2.276781 3.380274 0.833840
           CHANNELS 3 Zrotation Yrotation Xrotation
          JOINT LeftHandThumb2
          {
            OFFSET 4.705309 -0.000001 -0.000001
            CHANNELS 3 Zrotation Yrotation Xrotation
           JOINT LeftHandThumb3
           {
             OFFSET 2.798515 -0.000000 0.000003
             CHANNELS 3 Zrotation Yrotation Xrotation
            JOINT LeftHandThumbEnd
            {
              OFFSET 3.180793 0.000004 -0.000004
              CHANNELS 3 Zrotation Yrotation Xrotation
            }
           }
          }
         }
         JOINT LeftHandIndex1
         {
           OFFSET 3.247786 2.352677 0.137192
           CHANNELS 3 Zrotation Yrotation Xrotation
          JOINT LeftHandIndex2
          {
            OFFSET 6.367095 0.000001 -0.000000
            CHANNELS 3 Zrotation Yrotation Xrotation
           JOINT LeftHandIndex3
           {
             OFFSET 3.662364 -0.000000 0.000000
             CHANNELS 3 Zrotation Yrotation Xrotation
            JOINT LeftHandIndex4
            {
              OFFSET 2.329242 0.000004 -0.000004
              CHANNELS 3 Zrotation Yrotation Xrotation
             JOINT LeftHandIndexEnd
             {
               OFFSET 2.767823 0.000001 0.000000
               CHANNELS 3 Zrotation Yrotation Xrotation
             }
            }
           }
          }
         }
         JOINT LeftHandMiddle1
         {
           OFFSET 3.163612 0.945023 -0.406112
           CHANNELS 3 Zrotation Yrotation Xrotation
          JOINT LeftHandMiddle2
          {
            OFFSET 6.276789 0.000003 -0.000000
            CHANNELS 3 Zrotation Yrotation Xrotation
           JOINT LeftHandMiddle3
           {
             OFFSET 4.356520 -0.000001 0.000004
             CHANNELS 3 Zrotation Yrotation Xrotation
            JOINT LeftHandMiddle4
            {
              OFFSET 2.996877 -0.000000 0.000008
              CHANNELS 3 Zrotation Yrotation Xrotation
             JOINT LeftHandMiddleEnd
             {
               OFFSET 2.323256 0.000003 -0.000004
               CHANNELS 3 Zrotation Yrotation Xrotation
             }
            }
           }
          }
         }
         JOINT LeftHandRing1
         {
           OFFSET 2.882606 -0.309162 0.107445
           CHANNELS 3 Zrotation Yrotation Xrotation
          JOINT LeftHandRing2
          {
            OFFSET 6.033198 0.000000 0.000004
            CHANNELS 3 Zrotation Yrotation Xrotation
           JOINT LeftHandRing3
           {
             OFFSET 4.350578 0.000003 -0.000000
             CHANNELS 3 Zrotation Yrotation Xrotation
            JOINT LeftHandRing4
            {
              OFFSET 2.651321 0.000002 -0.000007
              CHANNELS 3 Zrotation Yrotation Xrotation
             JOINT LeftHandRingEnd
             {
               OFFSET 1.937663 0.000001 -0.000004
               CHANNELS 3 Zrotation Yrotation Xrotation
             }
            }
           }
          }
         }
         JOINT LeftHandPinky1
         {
           OFFSET 2.865315 -1.525436 0.575687
           CHANNELS 3 Zrotation Yrotation Xrotation
          JOINT LeftHandPinky2
          {
            OFFSET 5.549360 0.000001 -0.000008
            CHANNELS 3 Zrotation Yrotation Xrotation
           JOINT LeftHandPinky3
           {
             OFFSET 3.070974 0.000000 -0.000004
             CHANNELS 3 Zrotation Yrotation Xrotation
            JOINT LeftHandPinky4
            {
              OFFSET 1.549672 0.000001 -0.000000
              CHANNELS 3 Zrotation Yrotation Xrotation
             JOINT LeftHandPinkyEnd
             {
               OFFSET 1.952123 -0.000000 0.000000
               CHANNELS 3 Zrotation Yrotation Xrotation
             }
            }
           }
          }
         }
        }
       }
      }
     }
     JOINT RightShoulder
     {
       OFFSET 23.161717 5.296122 -1.380114
       CHANNELS 3 Zrotation Yrotation Xrotation
      JOINT RightArm
      {
        OFFSET -16.027195 -0.000002 0.000011
        CHANNELS 3 Zrotation Yrotation Xrotation
       JOINT RightForeArm
       {
         OFFSET -28.736639 0.000004 0.000002
         CHANNELS 3 Zrotation Yrotation Xrotation
        JOINT RightHand
        {
          OFFSET -27.133619 0.000006 0.000000
          CHANNELS 3 Zrotation Yrotation Xrotation
         JOINT RightHandThumb1
         {
           OFFSET -2.274328 -3.351035 -0.830670
           CHANNELS 3 Zrotation Yrotation Xrotation
          JOINT RightHandThumb2
          {
            OFFSET -4.703594 -0.000003 0.000002
            CHANNELS 3 Zrotation Yrotation Xrotation
           JOINT RightHandThumb3
           {
             OFFSET -2.794935 -0.000004 -0.000003
             CHANNELS 3 Zrotation Yrotation Xrotation
            JOINT RightHandThumbEnd
            {
              OFFSET -3.183852 0.000004 0.000001
              CHANNELS 3 Zrotation Yrotation Xrotation
            }
           }
          }
         }
         JOINT RightHandIndex1
         {
           OFFSET -3.253496 -2.337550 -0.127667
           CHANNELS 3 Zrotation Yrotation Xrotation
          JOINT RightHandIndex2
          {
            OFFSET -6.344434 0.000000 -0.000000
            CHANNELS 3 Zrotation Yrotation Xrotation
           JOINT RightHandIndex3
           {
             OFFSET -3.654871 0.000000 -0.000008
             CHANNELS 3 Zrotation Yrotation Xrotation
            JOINT RightHandIndex4
            {
              OFFSET -2.327586 -0.000001 -0.000000
              CHANNELS 3 Zrotation Yrotation Xrotation
             JOINT RightHandIndexEnd
             {
               OFFSET -2.770001 0.000003 0.000008
               CHANNELS 3 Zrotation Yrotation Xrotation
             }
            }
           }
          }
         }
         JOINT RightHandMiddle1
         {
           OFFSET -3.168223 -0.944764 0.411762
           CHANNELS 3 Zrotation Yrotation Xrotation
          JOINT RightHandMiddle2
          {
            OFFSET -6.266691 -0.000001 -0.000004
            CHANNELS 3 Zrotation Yrotation Xrotation
           JOINT RightHandMiddle3
           {
             OFFSET -4.348901 -0.000000 -0.000000
             CHANNELS 3 Zrotation Yrotation Xrotation
            JOINT RightHandMiddle4
            {
              OFFSET -3.000240 0.000002 -0.000004
              CHANNELS 3 Zrotation Yrotation Xrotation
             JOINT RightHandMiddleEnd
             {
               OFFSET -2.321477 -0.000004 -0.000004
               CHANNELS 3 Zrotation Yrotation Xrotation
             }
            }
           }
          }
         }
         JOINT RightHandRing1
         {
           OFFSET -2.885654 0.293261 -0.119232
           CHANNELS 3 Zrotation Yrotation Xrotation
          JOINT RightHandRing2
          {
            OFFSET -6.032835 -0.000001 -0.000004
            CHANNELS 3 Zrotation Yrotation Xrotation
           JOINT RightHandRing3
           {
             OFFSET -4.338810 0.000000 -0.000004
             CHANNELS 3 Zrotation Yrotation Xrotation
            JOINT RightHandRing4
            {
              OFFSET -2.654903 -0.000004 -0.000004
              CHANNELS 3 Zrotation Yrotation Xrotation
             JOINT RightHandRingEnd
             {
               OFFSET -1.935122 0.000000 0.000004
               CHANNELS 3 Zrotation Yrotation Xrotation
             }
            }
           }
          }
         }
         JOINT RightHandPinky1
         {
           OFFSET -2.866241 1.503904 -0.605270
           CHANNELS 3 Zrotation Yrotation Xrotation
          JOINT RightHandPinky2
          {
            OFFSET -5.553177 -0.000002 0.000000
            CHANNELS 3 Zrotation Yrotation Xrotation
           JOINT RightHandPinky3
           {
             OFFSET -3.062664 -0.000001 -0.000004
             CHANNELS 3 Zrotation Yrotation Xrotation
            JOINT RightHandPinky4
            {
              OFFSET -1.546529 0.000002 0.000004
              CHANNELS 3 Zrotation Yrotation Xrotation
             JOINT RightHandPinkyEnd
             {
               OFFSET -1.952341 -0.000000 -0.000004
               CHANNELS 3 Zrotation Yrotation Xrotation
             }
            }
           }
          }
         }
        }
       }
      }
     }
    }
   }
  }
  JOINT LeftLeg
  {
    OFFSET -8.443107 2.567604 10.043214
    CHANNELS 3 Zrotation Yrotation Xrotation
   JOINT LeftShin
   {
     OFFSET 43.229200 0.000001 -0.000001
     CHANNELS 3 Zrotation Yrotation Xrotation
    JOINT LeftFoot
    {
      OFFSET 42.298609 0.000001 0.000001
      CHANNELS 3 Zrotation Yrotation Xrotation
     JOINT LeftToeBase
     {
       OFFSET 14.165858 0.000001 0.000000
       CHANNELS 3 Zrotation Yrotation Xrotation
      JOINT LeftToeEnd
      {
        OFFSET 6.714100 -0.234461 0.000000
        CHANNELS 3 Zrotation Yrotation Xrotation
      }
     }
    }
   }
  }
  JOINT RightLeg
  {
    OFFSET -8.303923 2.592729 -10.047278
    CHANNELS 3 Zrotation Yrotation Xrotation
   JOINT RightShin
   {
     OFFSET -43.369684 -0.000000 0.000001
     CHANNELS 3 Zrotation Yrotation Xrotation
    JOINT RightFoot
    {
      OFFSET -42.260785 0.000004 0.000002
      CHANNELS 3 Zrotation Yrotation Xrotation
     JOINT RightToeBase
     {
       OFFSET -14.222245 -0.000002 -0.000001
       CHANNELS 3 Zrotation Yrotation Xrotation
      JOINT RightToeEnd
      {
        OFFSET -6.660062 0.232574 -0.000002
        CHANNELS 3 Zrotation Yrotation Xrotation
      }
     }
    }
   }
  }
 }
}
MOTION
Frames: 4
Frame Time: 0.008333
0.000000 0.000000 0.000000 0.000000 0.000000 0.000000 -21.011955 98.120949 -6.612797 66.661944 -12.976986 93.967903 2.675057 -5.493660 0.759112 -8.692613 -2.414185 -1.079876 15.375520 -25.680734 -8.865696 16.871709 -4.172992 2.669567 -2.336159 -0.962007 -7.331854 -29.765578 0.680928 -9.299191 0.000006 0.000000 0.000000 0.000006 0.000000 0.000000 -0.014399 0.000100 0.001167 -0.014394 0.000099 0.001167 33.561425 -98.826759 -23.080954 10.179071 -18.873386 -21.979603 3.671499 -0.000026 -0.000509 9.029562 -5.428938 -6.147295 17.636621 -26.322712 52.411155 -19.466645 -14.395592 29.410352 0.000000 -8.774814 0.000000 0.000000 0.000000 -0.000004 -0.609776 -1.795653 -3.889325 -4.807087 -11.046803 -2.937845 0.000000 -20.975994 0.000000 -5.019973 -25.033521 -4.031871 0.000006 0.000000 0.000000 -10.634530 -5.686969 -3.565584 10.573263 -17.922936 -3.113898 0.000000 -13.821193 0.000000 -0.501785 -31.181457 -4.027009 0.000002 0.000000 0.000002 -13.982710 -7.150195 -2.875039 13.772719 -8.401483 -3.218239 0.347728 -34.211501 0.771652 -0.963029 -17.733337 2.621012 0.000000 0.000000 0.000000 -17.346414 -20.095210 -4.201776 21.757546 -1.638370 3.866422 0.000000 -6.338816 0.000000 -1.697594 -22.591709 -6.193992 0.000000 -0.000004 -0.000002 -36.847347 -121.681739 -138.391112 -1.486764 18.570096 5.463277 4.088745 -0.000021 -0.000137 6.746687 -11.211680 -12.864362 22.182096 -20.375874 49.933272 -16.701795 -16.743521 28.476499 0.000000 -12.690592 0.000000 0.000003 0.000000 0.000000 -0.105919 -1.513855 -4.275878 -5.039037 -5.612866 -2.953552 0.000000 -11.020509 0.000000 -6.111297 -15.895308 -3.840458 0.000000 0.000000 0.000000 -10.283364 -5.680285 -4.341833 11.028282 -11.302392 -2.372630 -1.384272 -14.238564 -6.320108 -0.625450 -26.924139 -3.827588 0.000002 0.000000 0.000002 -13.708517 -7.363472 -3.720934 18.141130 -14.052722 -3.242670 0.000000 -18.787243 0.000000 -0.429714 -8.456029 2.555498 0.000000 0.000000 0.000000 -15.923531 -20.094472 -5.473576 30.419190 -7.190812 1.735924 0.000000 -8.162914 0.000000 -1.861911 -22.861429 -6.167925 0.000000 -0.000003 -0.000001 -208.788016 -44.041463 -11.705251 23.679225 0.000304 0.000307 -75.664118 4.140555 -19.072675 -4.534578 1.528278 2.147960 -0.999998 0.000000 0.000000 -14.636955 13.151537 -35.312883 9.510190 -0.000101 0.000387 -64.169010 9.564294 -9.618415 -8.675658 0.693376 1.655334 -1.000001 0.000000 0.000000
0.000000 0.000000 0.000000 0.000000 0.000000 0.000000 -21.003870 98.114838 -6.657239 66.735993 -13.035747 93.941929 2.682473 -5.487859 0.756178 -8.691891 -2.410079 -1.078605 15.377332 -25.608442 -8.850318 16.884933 -4.140727 2.669559 -2.336511 -0.961679 -7.334791 -29.766815 0.655404 -9.289512 0.000006 0.000000 0.000000 0.000006 0.000000 0.000000 -0.014373 0.000100 0.001173 -0.014368 0.000100 0.001173 33.246745 -98.802794 -22.800023 10.222985 -19.023616 -22.139288 3.675755 -0.000026 -0.000509 8.989382 -5.546676 -6.056694 17.636621 -26.322712 52.411155 -19.466645 -14.395592 29.410352 0.000000 -8.774814 0.000000 0.000000 0.000000 -0.000004 -0.609776 -1.795653 -3.889325 -4.807087 -11.046803 -2.937845 0.000000 -20.975994 0.000000 -5.019973 -25.033521 -4.031871 0.000006 0.000000 0.000000 -10.634530 -5.686969 -3.565584 10.573263 -17.922936 -3.113898 0.000000 -13.821193 0.000000 -0.501785 -31.181457 -4.027009 0.000002 0.000000 0.000002 -13.982710 -7.150195 -2.875039 13.772719 -8.401483 -3.218239 0.347728 -34.211501 0.771652 -0.963029 -17.733337 2.621012 0.000000 0.000000 0.000000 -17.346414 -20.095210 -4.201776 21.757546 -1.638370 3.866422 0.000000 -6.338816 0.000000 -1.697594 -22.591709 -6.193992 0.000000 -0.000004 -0.000002 -36.824272 -121.652234 -138.367446 -1.478168 18.533606 5.516145 4.088889 -0.000021 -0.000137 6.762420 -11.223678 -12.880847 22.182096 -20.375874 49.933272 -16.701795 -16.743521 28.476499 0.000000 -12.690592 0.000000 0.000003 0.000000 0.000000 -0.105919 -1.513855 -4.275878 -5.039037 -5.612866 -2.953552 0.000000 -11.020509 0.000000 -6.111297 -15.895308 -3.840458 0.000000 0.000000 0.000000 -10.283364 -5.680285 -4.341833 11.028282 -11.302392 -2.372630 -1.384272 -14.238564 -6.320108 -0.625450 -26.924139 -3.827588 0.000002 0.000000 0.000002 -13.708517 -7.363472 -3.720934 18.141130 -14.052722 -3.242670 0.000000 -18.787243 0.000000 -0.429714 -8.456029 2.555498 0.000000 0.000000 0.000000 -15.923531 -20.094472 -5.473576 30.419190 -7.190812 1.735924 0.000000 -8.162914 0.000000 -1.861911 -22.861429 -6.167925 0.000000 -0.000003 -0.000001 -208.862251 -43.946259 -11.654805 23.710930 0.000304 0.000308 -75.664776 4.062483 -19.083276 -4.530789 1.528211 2.147965 -0.999998 0.000000 0.000000 -14.712669 13.071520 -35.380019 9.514390 -0.000101 0.000387 -64.222387 9.609131 -9.589968 -8.638365 0.692685 1.655439 -1.000001 0.000000 0.000000
0.000000 0.000000 0.000000 0.000000 0.000000 0.000000 -20.999397 98.105881 -6.698760 66.808937 -13.090412 93.929410 2.698591 -5.479867 0.752369 -8.689700 -2.405086 -1.078303 15.371256 -25.525987 -8.830271 16.898696 -4.112546 2.669541 -2.336563 -0.961885 -7.342973 -29.762167 0.630376 -9.285363 0.000006 0.000000 0.000000 0.000006 0.000000 0.000000 -0.014385 0.000098 0.001157 -0.014380 0.000098 0.001157 32.979714 -98.778350 -22.573664 10.287034 -19.185939 -22.302853 3.681171 -0.000026 -0.000510 8.969307 -5.652686 -5.997552 17.636621 -26.322712 52.411155 -19.466645 -14.395592 29.410352 0.000000 -8.774814 0.000000 0.000000 0.000000 -0.000004 -0.609776 -1.795653 -3.889325 -4.807087 -11.046803 -2.937845 0.000000 -20.975994 0.000000 -5.019973 -25.033521 -4.031871 0.000006 0.000000 0.000000 -10.634530 -5.686969 -3.565584 10.573263 -17.922936 -3.113898 0.000000 -13.821193 0.000000 -0.501785 -31.181457 -4.027009 0.000002 0.000000 0.000002 -13.982710 -7.150195 -2.875039 13.772719 -8.401483 -3.218239 0.347728 -34.211501 0.771652 -0.963029 -17.733337 2.621012 0.000000 0.000000 0.000000 -17.346414 -20.095210 -4.201776 21.757546 -1.638370 3.866422 0.000000 -6.338816 0.000000 -1.697594 -22.591709 -6.193992 0.000000 -0.000004 -0.000002 -36.808921 -121.625963 -138.341702 -1.472380 18.506532 5.563322 4.087842 -0.000021 -0.000137 6.768877 -11.228903 -12.873991 22.182096 -20.375874 49.933272 -16.701795 -16.743521 28.476499 0.000000 -12.690592 0.000000 0.000003 0.000000 0.000000 -0.105919 -1.513855 -4.275878 -5.039037 -5.612866 -2.953552 0.000000 -11.020509 0.000000 -6.111297 -15.895308 -3.840458 0.000000 0.000000 0.000000 -10.283364 -5.680285 -4.341833 11.028282 -11.302392 -2.372630 -1.384272 -14.238564 -6.320108 -0.625450 -26.924139 -3.827588 0.000002 0.000000 0.000002 -13.708517 -7.363472 -3.720934 18.141130 -14.052722 -3.242670 0.000000 -18.787243 0.000000 -0.429714 -8.456029 2.555498 0.000000 0.000000 0.000000 -15.923531 -20.094472 -5.473576 30.419190 -7.190812 1.735924 0.000000 -8.162914 0.000000 -1.861911 -22.861429 -6.167925 0.000000 -0.000003 -0.000001 -208.944085 -43.846578 -11.596222 23.742592 0.000304 0.000308 -75.664003 3.989597 -19.086979 -4.525404 1.528115 2.147973 -0.999998 0.000000 0.000000 -14.784129 12.990000 -35.436377 9.516144 -0.000101 0.000387 -64.275935 9.641836 -9.570831 -8.599470 0.691964 1.655548 -1.000001 0.000000 0.000000
0.000000 0.000000 0.000000 0.000000 0.000000 0.000000 -20.993042 98.098419 -6.739160 66.879514 -13.138717 93.931857 2.728133 -5.468710 0.747234 -8.685094 -2.398499 -1.079395 15.353189 -25.431648 -8.803803 16.912268 -4.091677 2.669508 -2.336581 -0.962081 -7.360433 -29.747073 0.603787 -9.289563 0.000006 0.000000 0.000000 0.000006 0.000000 0.000000 -0.014397 0.000097 0.001146 -0.014392 0.000097 0.001146 32.768038 -98.755416 -22.411595 10.379071 -19.362842 -22.469467 3.687623 -0.000026 -0.000510 8.981167 -5.742476 -5.989060 17.636621 -26.322712 52.411155 -19.466645 -14.395592 29.410352 0.000000 -8.774814 0.000000 0.000000 0.000000 -0.000004 -0.609776 -1.795653 -3.889325 -4.807087 -11.046803 -2.937845 0.000000 -20.975994 0.000000 -5.019973 -25.033521 -4.031871 0.000006 0.000000 0.000000 -10.634530 -5.686969 -3.565584 10.573263 -17.922936 -3.113898 0.000000 -13.821193 0.000000 -0.501785 -31.181457 -4.027009 0.000002 0.000000 0.000002 -13.982710 -7.150195 -2.875039 13.772719 -8.401483 -3.218239 0.347728 -34.211501 0.771652 -0.963029 -17.733337 2.621012 0.000000 0.000000 0.000000 -17.346414 -20.095210 -4.201776 21.757546 -1.638370 3.866422 0.000000 -6.338816 0.000000 -1.697594 -22.591709 -6.193992 0.000000 -0.000004 -0.000002 -36.809385 -121.602067 -138.307694 -1.471599 18.495988 5.605874 4.085848 -0.000021 -0.000137 6.759832 -11.227198 -12.829555 22.182096 -20.375874 49.933272 -16.701795 -16.743521 28.476499 0.000000 -12.690592 0.000000 0.000003 0.000000 0.000000 -0.105919 -1.513855 -4.275878 -5.039037 -5.612866 -2.953552 0.000000 -11.020509 0.000000 -6.111297 -15.895308 -3.840458 0.000000 0.000000 0.000000 -10.283364 -5.680285 -4.341833 11.028282 -11.302392 -2.372630 -1.384272 -14.238564 -6.320108 -0.625450 -26.924139 -3.827588 0.000002 0.000000 0.000002 -13.708517 -7.363472 -3.720934 18.141130 -14.052722 -3.242670 0.000000 -18.787243 0.000000 -0.429714 -8.456029 2.555498 0.000000 0.000000 0.000000 -15.923531 -20.094472 -5.473576 30.419190 -7.190812 1.735924 0.000000 -8.162914 0.000000 -1.861911 -22.861429 -6.167925 0.000000 -0.000003 -0.000001 -209.036033 -43.742677 -11.522524 23.778673 0.000304 0.000308 -75.663572 3.917777 -19.082997 -4.517418 1.527970 2.147985 -0.999998 0.000000 0.000000 -14.849894 12.906627 -35.479870 9.517834 -0.000101 0.000387 -64.331646 9.664992 -9.562721 -8.557577 0.691188 1.655666 -1.000001 0.000000 0.000000
